<svg xmlns="http://www.w3.org/2000/svg"  viewBox="0 0 96 96" width="96px" height="96px"><path fill="#d22730" d="M67,78c-0.101,0-0.202-0.005-0.302-0.015c-8.083-0.818-10.97-4.688-11.971-6.922 c-1.396-3.114-0.897-6.81,1.333-9.886c3.272-4.513,9.498-6.879,16.254-6.161c0.651,0.069,1.232,0.341,1.685,0.747V31.5 c0-1.657,1.343-3,3-3s3,1.343,3,3V64C80,72.763,73.39,78,67,78z M69.862,60.885c-4.516,0-7.545,1.884-8.944,3.814 c-0.969,1.336-1.23,2.762-0.715,3.91c0.79,1.763,3.313,2.994,6.937,3.389C70.036,71.92,74,69.431,74,64v-3.764 c-0.61,0.545-1.44,0.84-2.315,0.748C71.053,60.917,70.445,60.885,69.862,60.885z" opacity=".3"/><path fill="#d22730" d="M67,77c-0.067,0-0.134-0.003-0.201-0.01c-7.583-0.767-10.246-4.299-11.159-6.335 c-1.248-2.784-0.788-6.107,1.23-8.89c3.063-4.225,8.942-6.433,15.34-5.753c1.099,0.116,1.895,1.101,1.779,2.199 c-0.116,1.099-1.106,1.894-2.199,1.779c-5.958-0.632-9.938,1.718-11.682,4.124c-1.185,1.634-1.483,3.422-0.818,4.906 c0.944,2.106,3.786,3.554,7.806,3.98C70.411,72.946,75,70.148,75,64V31.5c0-1.104,0.896-2,2-2s2,0.896,2,2V64 C79,72.137,72.898,77,67,77z" opacity=".3"/><path fill="#d22730" d="M67,76c-0.034,0-0.067-0.001-0.101-0.005c-5.249-0.531-8.924-2.573-10.347-5.75 c-1.116-2.49-0.705-5.367,1.127-7.894c2.236-3.085,7.207-6.108,14.425-5.346c0.549,0.058,0.947,0.55,0.89,1.1 c-0.058,0.549-0.546,0.941-1.1,0.89c-6.376-0.669-10.688,1.899-12.596,4.531c-1.401,1.932-1.736,4.083-0.921,5.902 c1.114,2.487,4.193,4.109,8.672,4.573C71.458,73.972,76,70.236,76,64V31.5c0-0.552,0.448-1,1-1s1,0.448,1,1V64 C78,71.511,72.407,76,67,76z"/><g><path fill="#d22730" d="M25,83c-0.101,0-0.202-0.005-0.302-0.015c-8.083-0.819-10.969-4.689-11.97-6.923 c-1.396-3.113-0.897-6.809,1.333-9.884c3.272-4.513,9.496-6.873,16.255-6.161c0.651,0.069,1.232,0.341,1.685,0.747v-32.65 c0-3.141,2.115-5.917,5.144-6.75l33.792-8.766c0.552-0.143,1.083-0.281,1.586-0.364l-0.01-0.044 c2.577-0.612,4.264,0.217,5.224,1.019c2.706,2.261,2.47,6.565,2.314,9.414c-0.023,0.428-0.045,0.812-0.049,1.125 c-0.054,4.771-7.261,7.197-28.892,12.068c-3.43,0.772-7.301,1.644-8.284,2.018c-1.23,0.763-2.865,0.541-3.843-0.586 c-1.086-1.251-0.951-3.146,0.3-4.232c0.997-0.865,2.375-1.222,10.509-3.053c6.458-1.454,21.25-4.785,24.235-7.042 c0.009-0.198,0.021-0.407,0.033-0.625c0.051-0.942,0.179-3.275-0.129-4.275c-0.011,0.002-0.021,0.005-0.033,0.008 c-0.228,0.06-35.204,9.132-35.204,9.132C38.302,27.269,38,27.665,38,28.114V69C38,77.763,31.39,83,25,83z M27.864,65.885 c-4.517,0-7.546,1.884-8.946,3.814c-0.969,1.336-1.229,2.761-0.715,3.909c0.79,1.763,3.313,2.994,6.937,3.389 C28.036,76.92,32,74.431,32,69v-3.764c-0.609,0.544-1.433,0.838-2.315,0.748C29.054,65.917,28.446,65.885,27.864,65.885z M42.732,37.872L42.732,37.872C42.732,37.872,42.732,37.872,42.732,37.872z M43.213,37.548c-0.001,0.001-0.002,0.001-0.003,0.002 C43.211,37.549,43.212,37.549,43.213,37.548z" opacity=".3"/><path fill="#d22730" d="M25,82c-0.067,0-0.135-0.003-0.202-0.01c-7.583-0.768-10.246-4.3-11.158-6.336 c-1.248-2.783-0.788-6.106,1.229-8.888c3.063-4.225,8.938-6.429,15.34-5.754c1.098,0.116,1.895,1.1,1.779,2.199 c-0.116,1.098-1.105,1.899-2.199,1.779c-5.952-0.625-9.938,1.719-11.682,4.124c-1.185,1.634-1.483,3.421-0.818,4.905 c0.944,2.106,3.786,3.555,7.806,3.981C28.411,77.946,33,75.148,33,69V28.114c0-2.692,1.813-5.071,4.409-5.785l29.783-7.726 c2.835-0.735,4.521-1.172,5.573-1.344l-0.022-0.095c2.175-0.517,3.566,0.157,4.352,0.813c2.321,1.939,2.102,5.943,1.957,8.592 c-0.024,0.445-0.047,0.844-0.05,1.168c-0.046,4.121-8.325,6.648-28.111,11.103c-3.593,0.809-7.655,1.724-8.521,2.099 c-0.826,0.561-1.96,0.426-2.631-0.347c-0.724-0.834-0.634-2.098,0.2-2.821c0.809-0.702,2.386-1.103,10.073-2.833 c6.904-1.555,22.918-5.16,24.997-7.532c0.01-0.313,0.029-0.669,0.05-1.056c0.069-1.272,0.254-4.65-0.528-5.305 c-0.112-0.092-0.449-0.089-0.863,0.009c-0.211,0.055-35.225,9.138-35.225,9.138C37.604,26.423,37,27.216,37,28.114V69 C37,77.137,30.898,82,25,82z M42.315,36.963C42.315,36.963,42.315,36.963,42.315,36.963S42.315,36.963,42.315,36.963z M42.558,36.792c0,0-0.001,0.001-0.001,0.001C42.557,36.793,42.558,36.793,42.558,36.792z" opacity=".3"/><path fill="#d22730" d="M25,81c-0.034,0-0.067-0.001-0.101-0.005c-5.249-0.532-8.923-2.574-10.347-5.751 c-1.116-2.489-0.705-5.366,1.127-7.892c2.236-3.084,7.2-6.106,14.425-5.347c0.549,0.058,0.947,0.55,0.89,1.1 c-0.058,0.549-0.548,0.938-1.1,0.89c-6.374-0.672-10.688,1.899-12.596,4.531c-1.4,1.931-1.736,4.082-0.921,5.901 c1.114,2.486,4.193,4.109,8.672,4.573C29.458,78.972,34,75.236,34,69V28.114c0-2.244,1.511-4.226,3.674-4.821l29.769-7.722 c3.171-0.823,4.733-1.228,5.552-1.341l-0.022-0.094c1.42-0.338,2.592-0.133,3.479,0.608c1.936,1.618,1.742,5.174,1.6,7.77 c-0.025,0.461-0.048,0.875-0.052,1.212c-0.038,3.397-8.844,5.976-27.331,10.139c-4.033,0.908-8.204,1.847-8.823,2.215 c-0.417,0.362-1.021,0.295-1.382-0.122s-0.289-1.07,0.128-1.432c0.622-0.54,2.5-1.006,9.638-2.613 c6.985-1.573,25.539-5.75,25.771-8.211c0.004-0.359,0.028-0.803,0.055-1.297c0.105-1.926,0.281-5.15-0.886-6.126 c-0.14-0.118-0.568-0.475-1.735-0.196c-0.179,0.046-35.245,9.142-35.245,9.142C36.907,25.578,36,26.768,36,28.114V69 C36,76.511,30.407,81,25,81z"/></g></svg>